<svg fill="none" viewBox="0 0 500 500" xmlns="http://www.w3.org/2000/svg">
    <path fill="transparent" d="M0 0h500v500H0z"/>
    <circle cx="250" cy="250" r="200" fill="#4F467B"/>
    <g clip-path="url(#a)">
    <path
        d="m244.02 450 .971-1.919.947-1.907.918-1.884.891-1.858.863-1.832.834-1.802 1.2-2.646.765-1.723.738-1.688.71-1.651 1.013-2.404.952-2.31.89-2.211.829-2.105.768-1.994.707-1.877 1.006-2.748 1.313-3.685.299-.873c.492-1.441.969-2.871 1.417-4.274l.389-1.249.316-1.003.613-1.983.585-1.952.151-.512.132-.452.544-1.901.132-.47.13-.467.501-1.844c.243-.912.476-1.808.697-2.686l.427-1.734c.275-1.14.53-2.248.763-3.319l.334-1.578c.531-2.585.927-4.93 1.178-6.977 9.684 2.498 19.161 4.53 28.495 5.891.645 17.241-1.506 39.2-5.897 61.408a198.254 198.254 0 0 0 20.458-5.468l.067-1.5.049-1.226.088-2.441.075-2.423.062-2.404.049-2.381.036-2.358.024-2.331.013-2.304.001-2.274-.011-2.241-.021-2.208-.032-2.172-.043-2.134-.053-2.093-.017-.611-.013-.421-.104-3.027-.081-1.962-.091-1.913-.099-1.863-.107-1.811-.115-1.757-.123-1.7-.13-1.643-.138-1.582-.144-1.519-.075-.736-.154-1.423.384.028c6.957.477 14.057.3 21.301-.3 4.239 7.784 8.24 17.895 11.771 29.399l.7 2.32c.231.779.46 1.564.686 2.354l.674 2.389c.266.961.529 1.929.789 2.905a200.188 200.188 0 0 0 13.85-8.464l-.052-.13-1.076-2.635-.713-1.717-.708-1.683-.703-1.648-.698-1.612-.69-1.574-.683-1.536-.675-1.496-.997-2.167-.652-1.39-.641-1.347-.631-1.302-.618-1.254-.904-1.792-.586-1.133-.572-1.082-.556-1.03-.541-.976-.524-.922-.508-.866a39.68 39.68 0 0 0-.126-.212l-.121-.2-.48-.78-.461-.721c-.151-.23-.298-.451-.442-.661 25.583-1.924 51.39-14.3 72.516-26.192 20.171-31.231 31.878-68.44 31.878-108.38 0-110.48-89.566-200.04-200.05-200.04-110.48 0-200.05 89.563-200.05 200.04 0 29.072 6.202 56.695 17.354 81.62 37.354.287 69.15 6.027 100.02 14.819l3.164.912 1.581.465 3.156.944a564.01 564.01 0 0 1 6.304 1.947l3.148 1.002 3.149 1.02 1.177.386.397.131 3.15 1.047 3.152 1.063 3.156 1.08 3.16 1.096 3.166 1.11 3.172 1.125 3.181 1.139c-18.549 18.994-52.924 30.986-98.998 34.429a200.82 200.82 0 0 0 32.955 25.273c38.638-10.644 70.121-35.53 82.763-54.299l5.998 1.923c7.955 2.534 15.742 4.946 23.386 7.133l-.505 1.6-.535 1.653-.564 1.703-.594 1.751-.624 1.796-.654 1.84-.686 1.879-.716 1.918a289 289 0 0 1-.748 1.954l-.781 1.986-.813 2.018-.846 2.046c-6.18 14.759-14.923 31.523-26.879 46.288a245.891 245.891 0 0 1-3.249 3.928 201.025 201.025 0 0 0 24.527 2.23zm28.089-190.99h49.904c1.53 0 2.857-1.254 2.992-2.778 2.145-24.295-13.081-41.266-37.767-41.266-22.47 0-37.9 16.178-37.9 38.202 0 22.175 15.879 38.355 39.698 38.355 15.292 0 27.702-7.09 33.248-18.794 1.114-2.35-.115-4.279-2.715-4.279h-18.882c-.635 0-1.567.318-2.018.763-2.197 2.161-5.229 3.133-10.082 3.133-9.888 0-14.832-5.842-16.478-13.336zm.3-13.931c1.948-7.342 6.892-12.136 15.429-12.136 8.24 0 13.484 3.744 14.831 12.136h-30.26zm63.854 41.503v-66.68a3 3 0 0 1 2.991-2.992h18.434a3 3 0 0 1 2.992 2.992v7.365c5.013-6.669 12.488-10.674 21.764-11.424 1.786-.145 3.253 1.205 3.253 2.995v17.746c0 1.785-1.464 3.102-3.245 2.975-7.066-.503-11.553.899-15.656 4.001-3.42 2.586-6.116 8.347-6.116 12.633v30.389a3 3 0 0 1-2.992 2.992h-18.434a3 3 0 0 1-2.991-2.992zm-112.41-81.056c-7.91.127-14.249-5.535-14.489-13.181-.241-7.64 6.116-13.999 13.752-14.231 7.798-.234 14.365 5.38 14.691 13.17.324 7.744-6.206 14.116-13.954 14.242zm9.026 84.048h-18.283a3 3 0 0 1-2.992-2.992v-66.68a3 3 0 0 1 2.992-2.992h18.283a3 3 0 0 1 2.992 2.992v66.68a3 3 0 0 1-2.992 2.992zm-40.185-.001h-18.283a3 3 0 0 1-2.992-2.992V251.97c0-10.339-5.301-15.36-13.391-15.36-3.334 0-7.147 1.44-9.599 4.24-1.17 1.335-2.055 3.941-2.055 5.714v40.017a3 3 0 0 1-2.993 2.992h-18.432a3 3 0 0 1-2.994-2.992v-100.39a3.002 3.002 0 0 1 2.994-2.993h18.432a3.002 3.002 0 0 1 2.993 2.993v37.646c3.811-5.297 10.975-8.875 20.567-8.875 16.777 0 28.745 12.431 28.745 33.108v38.507a2.999 2.999 0 0 1-2.992 2.992z"
        clip-rule="evenodd"
        fill="#fff"
        fill-rule="evenodd"
    />
    </g>
    <defs>
    <clipPath id="a">
        <path transform="translate(50 50)" fill="#fff" d="M0 0h400v400H0z"/>
    </clipPath>
    </defs>
</svg>