<svg width="41" height="40" viewBox="0 0 41 40" fill="none" xmlns="http://www.w3.org/2000/svg">
<path fill-rule="evenodd" clip-rule="evenodd" d="M19.4021 40L19.4991 39.808L19.5938 39.6174L19.6856 39.429L19.7747 39.2432L19.861 39.06L19.9444 38.8798L20.0644 38.6152L20.1409 38.4429L20.2147 38.2741L20.2857 38.109L20.387 37.8686L20.4822 37.6376L20.5712 37.4165L20.6541 37.206L20.7309 37.0066L20.8016 36.8189L20.9022 36.5441L21.0336 36.1756L21.0634 36.0883C21.1126 35.9442 21.1603 35.8012 21.2051 35.6609L21.244 35.536L21.2756 35.4358L21.3369 35.2374L21.3954 35.0422L21.4237 34.9458L21.4781 34.7557L21.5043 34.662L21.5544 34.4776C21.5787 34.3865 21.602 34.2969 21.6241 34.209L21.6669 34.0356C21.6943 33.9216 21.7198 33.8109 21.7431 33.7038L21.7765 33.5459C21.8296 33.2875 21.8692 33.0529 21.8943 32.8482C22.8627 33.098 23.8104 33.3012 24.7438 33.4374C24.8083 35.1614 24.5932 37.3573 24.1542 39.5781C24.8501 39.4314 25.5327 39.2484 26.1999 39.0313L26.2066 38.8813L26.2115 38.7587L26.2203 38.5146L26.2278 38.2723L26.234 38.0319L26.2389 37.7938L26.2425 37.558L26.245 37.3249L26.2462 37.0945L26.2463 36.8671L26.2452 36.643L26.2431 36.4222L26.2399 36.205L26.2356 35.9916L26.2303 35.7823L26.2273 35.6792L26.2169 35.3764L26.2088 35.1802L26.1997 34.9889L26.1899 34.8026L26.1791 34.6215L26.1676 34.4458L26.1553 34.2758L26.1423 34.1115L26.1285 33.9533L26.1141 33.8014L26.1066 33.7278L26.0912 33.5855L26.1296 33.5884C26.8253 33.636 27.5353 33.6183 28.2597 33.5583C28.6836 34.3367 29.0837 35.3478 29.4368 36.4982L29.5068 36.7302C29.5299 36.8081 29.5528 36.8866 29.5754 36.9656L29.6428 37.2045C29.6694 37.3006 29.6957 37.3974 29.7217 37.495C30.1955 37.2312 30.6575 36.9488 31.1066 36.6486L31.1015 36.6356L30.9939 36.3721L30.9226 36.2004L30.8518 36.0321L30.7815 35.8673L30.7117 35.7061L30.6427 35.5487L30.5744 35.3951L30.5069 35.2455L30.4072 35.0288L30.342 34.8898L30.2779 34.7551L30.2148 34.6249L30.153 34.4995L30.0626 34.3203L30.004 34.207L29.9468 34.0988L29.8912 33.9958L29.8371 33.8982L29.7847 33.806L29.7339 33.7194L29.7092 33.6782L29.6612 33.6002L29.6151 33.5281C29.6 33.5051 29.5853 33.483 29.5709 33.462C32.1292 33.2696 34.7099 32.032 36.8225 30.8429C38.8395 27.7198 40.0103 23.9988 40.0103 20.0045C40.0103 8.9563 31.0536 0 20.0051 0C8.9566 0 0 8.9563 0 20.0045C0 22.9117 0.620174 25.674 1.73545 28.1665C5.47083 28.1952 8.65045 28.7692 11.737 29.6484L12.0534 29.7396L12.2115 29.7861L12.5271 29.8805C12.7374 29.9441 12.9475 30.009 13.1575 30.0752L13.4723 30.1754L13.7872 30.2774L13.9446 30.3291L14.2596 30.4338L14.5748 30.5402L14.8904 30.6481L15.2064 30.7577L15.523 30.8687L15.8402 30.9812L16.1583 31.0951C14.3034 32.9945 10.8659 34.1937 6.25849 34.538C7.26397 35.4893 8.36811 36.3374 9.55396 37.0653C13.4178 36.0009 16.5661 33.5123 17.8303 31.6354L18.4301 31.8277C19.2256 32.0811 20.0043 32.3223 20.7687 32.541L20.7182 32.701L20.6647 32.8663L20.6083 33.0366L20.5489 33.2117L20.4865 33.3913L20.4211 33.5753L20.3526 33.7632L20.2809 33.955C20.2565 34.0195 20.2315 34.0847 20.2061 34.1504L20.128 34.349L20.0467 34.5508L19.9621 34.7554C19.3441 36.2313 18.4698 37.9077 17.2742 39.3842C17.1674 39.5161 17.0591 39.647 16.9493 39.777C17.7522 39.9001 18.5707 39.9754 19.4021 40ZM22.2108 20.9014H27.2013C27.3543 20.9014 27.487 20.776 27.5005 20.6236C27.715 18.1941 26.1924 16.497 23.7238 16.497C21.4768 16.497 19.9338 18.1148 19.9338 20.3172C19.9338 22.5347 21.5217 24.1527 23.9036 24.1527C25.4328 24.1527 26.6738 23.4437 27.2284 22.2733C27.3397 22.0383 27.2169 21.8454 26.9569 21.8454H25.0687C25.0051 21.8454 24.912 21.8772 24.8669 21.9217C24.6472 22.1378 24.344 22.235 23.8586 22.235C22.8699 22.235 22.3755 21.6508 22.2108 20.9014ZM22.2409 19.5083C22.4356 18.7741 22.9301 18.2947 23.7838 18.2947C24.6078 18.2947 25.1322 18.6691 25.2669 19.5083H22.2409ZM28.6263 23.6586V16.9906C28.6263 16.826 28.761 16.6914 28.9255 16.6914H30.7689C30.9333 16.6914 31.068 16.826 31.068 16.9906V17.7271C31.5693 17.0602 32.3168 16.6597 33.2444 16.5847C33.423 16.5702 33.5697 16.7052 33.5697 16.8842V18.6588C33.5697 18.8373 33.4233 18.969 33.2453 18.9563C32.5386 18.906 32.0899 19.0462 31.6796 19.3564C31.3376 19.615 31.068 20.1911 31.068 20.6197V23.6586C31.068 23.8232 30.9333 23.9578 30.7689 23.9578H28.9255C28.761 23.9578 28.6263 23.8232 28.6263 23.6586ZM17.385 15.553C16.5941 15.5657 15.9602 14.9995 15.9362 14.2349C15.9121 13.4709 16.5478 12.835 17.3114 12.8118C18.0912 12.7884 18.7479 13.3498 18.7805 14.1288C18.8129 14.9032 18.1599 15.5404 17.385 15.553ZM18.2877 23.9578H16.4594C16.2947 23.9578 16.1602 23.8232 16.1602 23.6586V16.9906C16.1602 16.826 16.2947 16.6914 16.4594 16.6914H18.2877C18.4524 16.6914 18.5869 16.826 18.5869 16.9906V23.6586C18.5869 23.8232 18.4524 23.9578 18.2877 23.9578ZM14.2692 23.9577H12.4409C12.2763 23.9577 12.1417 23.8232 12.1417 23.6585V20.1974C12.1417 19.1635 11.6116 18.6614 10.8026 18.6614C10.4692 18.6614 10.0879 18.8054 9.84271 19.0855C9.7257 19.2189 9.6372 19.4795 9.6372 19.6568V23.6585C9.6372 23.8232 9.50249 23.9577 9.33787 23.9577H7.49465C7.33003 23.9577 7.19533 23.8232 7.19533 23.6585V13.6199C7.19533 13.4553 7.33003 13.3206 7.49465 13.3206H9.33787C9.50249 13.3206 9.6372 13.4553 9.6372 13.6199V17.3845C10.0183 16.8548 10.7347 16.497 11.6939 16.497C13.3716 16.497 14.5684 17.7401 14.5684 19.8078V23.6585C14.5684 23.8232 14.4339 23.9577 14.2692 23.9577Z" fill="#4F467B"/>
</svg>
