<svg width="16" height="16" viewBox="0 0 16 16" fill="none" xmlns="http://www.w3.org/2000/svg">
<path d="M15.3334 5.95987C15.3334 4.99356 15.0706 4.04534 14.5735 3.21665L13.2403 0.99009L13.2401 0.989858C13.1192 0.788732 12.9015 0.665963 12.6667 0.666659H3.33342C3.09788 0.669217 2.88117 0.79594 2.76329 0.999858L1.43009 3.22642V3.22665C0.933437 4.05207 0.669557 4.99654 0.66676 5.95987V6.23657C0.665365 6.68904 0.789295 7.13312 1.0246 7.51961C1.2599 7.90628 1.59751 8.22021 2.00001 8.42664V13.3334C2.00001 13.8638 2.21067 14.3726 2.58594 14.7476C2.96099 15.1227 3.46975 15.3333 4.0001 15.3333H12.0001C12.5304 15.3333 13.0392 15.1227 13.4142 14.7476C13.7895 14.3726 14.0002 13.8638 14.0002 13.3334V8.42664C14.4026 8.22016 14.7403 7.90627 14.9756 7.51961C15.2109 7.13317 15.3348 6.68907 15.3334 6.23657L15.3334 5.95987ZM6.66677 13.9998V11.3331H9.33348V13.9998H6.66677ZM12.0002 13.9998H10.6667V10.6664C10.6667 10.4895 10.5965 10.32 10.4714 10.1949C10.3463 10.07 10.1768 9.99982 10.0001 9.99982H5.99998C5.63191 9.99982 5.33338 10.2981 5.33338 10.6664V13.9998H4.00017C3.63187 13.9998 3.33357 13.7012 3.33357 13.3332V8.63636C3.79231 8.57196 4.22178 8.37246 4.56683 8.06298L4.66681 7.96625V7.96649C5.1058 8.41431 5.70639 8.66685 6.33347 8.66685C6.96055 8.66685 7.56114 8.41433 8.00013 7.96649C8.43911 8.41431 9.03971 8.66685 9.66679 8.66685C10.2939 8.66685 10.8945 8.41433 11.3334 7.96649L11.4334 8.06321V8.06298C11.7785 8.37246 12.2079 8.57196 12.6667 8.63636V13.3332C12.6667 13.5099 12.5965 13.6794 12.4716 13.8045C12.3465 13.9296 12.177 13.9998 12.0001 13.9998H12.0002ZM14.0003 6.23607H14.0001C14.0115 6.49672 13.9268 6.75225 13.7622 6.95452C13.5974 7.15681 13.3641 7.29144 13.1067 7.33283C12.8235 7.36305 12.5408 7.27145 12.3294 7.08055C12.1183 6.88942 11.9983 6.61761 11.9999 6.3328C11.9999 5.9645 11.7016 5.66619 11.3333 5.66619C10.9651 5.66619 10.6667 5.96451 10.6667 6.3328C10.6667 6.69018 10.4761 7.02013 10.1666 7.19894C9.85736 7.37751 9.47601 7.37751 9.16679 7.19894C8.85731 7.02014 8.66665 6.69019 8.66665 6.3328C8.66665 5.9645 8.36834 5.66619 8.00005 5.66619C7.63176 5.66619 7.33345 5.96451 7.33345 6.3328C7.33345 6.69018 7.14279 7.02013 6.83331 7.19894C6.52407 7.37751 6.14272 7.37751 5.8335 7.19894C5.52402 7.02014 5.33336 6.69019 5.33336 6.3328C5.33336 5.9645 5.03505 5.66619 4.66676 5.66619C4.29847 5.66619 4.00016 5.96451 4.00016 6.3328C3.99946 6.6167 3.87832 6.88689 3.66673 7.07614C3.45514 7.26611 3.17287 7.35702 2.89013 7.3261C2.63436 7.28401 2.40301 7.15008 2.23906 6.94942C2.07511 6.74876 1.99004 6.49509 2.00004 6.23608V5.95939C1.99981 5.23373 2.19674 4.52177 2.57016 3.89956L3.71015 1.99943H12.2899L13.4299 3.89956C13.8033 4.52177 14.0002 5.23373 14 5.95939L14.0003 6.23607Z" fill="#2D3748"/>
</svg>
