<svg width="16" height="16" viewBox="0 0 16 16" fill="none" xmlns="http://www.w3.org/2000/svg">
<path d="M2.66659 10.6667V2.66668H1.33325V1.33334H3.33325C3.51006 1.33334 3.67963 1.40358 3.80466 1.52861C3.92968 1.65363 3.99992 1.8232 3.99992 2.00001V10H12.2919L13.6253 4.66668H5.33325V3.33334H14.4799C14.5813 3.33335 14.6813 3.35645 14.7723 3.4009C14.8634 3.44535 14.9431 3.50998 15.0055 3.58987C15.0678 3.66976 15.1111 3.76281 15.1321 3.86195C15.1531 3.96109 15.1512 4.06371 15.1266 4.16201L13.4599 10.8287C13.4238 10.9728 13.3406 11.1008 13.2234 11.1922C13.1062 11.2837 12.9619 11.3333 12.8133 11.3333H3.33325C3.15644 11.3333 2.98687 11.2631 2.86185 11.1381C2.73682 11.0131 2.66659 10.8435 2.66659 10.6667ZM3.99992 15.3333C3.6463 15.3333 3.30716 15.1929 3.05711 14.9428C2.80706 14.6928 2.66659 14.3536 2.66659 14C2.66659 13.6464 2.80706 13.3073 3.05711 13.0572C3.30716 12.8072 3.6463 12.6667 3.99992 12.6667C4.35354 12.6667 4.69268 12.8072 4.94273 13.0572C5.19278 13.3073 5.33325 13.6464 5.33325 14C5.33325 14.3536 5.19278 14.6928 4.94273 14.9428C4.69268 15.1929 4.35354 15.3333 3.99992 15.3333ZM11.9999 15.3333C11.6463 15.3333 11.3072 15.1929 11.0571 14.9428C10.8071 14.6928 10.6666 14.3536 10.6666 14C10.6666 13.6464 10.8071 13.3073 11.0571 13.0572C11.3072 12.8072 11.6463 12.6667 11.9999 12.6667C12.3535 12.6667 12.6927 12.8072 12.9427 13.0572C13.1928 13.3073 13.3333 13.6464 13.3333 14C13.3333 14.3536 13.1928 14.6928 12.9427 14.9428C12.6927 15.1929 12.3535 15.3333 11.9999 15.3333Z" fill="#1A202C"/>
</svg>
