<svg width="18" height="18" viewBox="0 0 18 18" fill="none" xmlns="http://www.w3.org/2000/svg">
<path fill-rule="evenodd" clip-rule="evenodd" d="M2.59524 4.01463V15.5125C2.59524 16.1721 2.86853 16.8053 3.35514 17.2717C3.35514 17.272 3.35514 17.272 3.35557 17.272C3.84263 17.7384 4.50231 18.0001 5.1905 18.0001H12.8095C13.4976 18.0001 14.1581 17.7381 14.6447 17.2717C15.1313 16.8053 15.4048 16.1722 15.4048 15.5125V4.01463C15.4048 3.55695 15.0172 3.18549 14.5396 3.18549C14.0621 3.18549 13.6745 3.55695 13.6745 4.01463V15.5125C13.6745 15.7327 13.5837 15.9437 13.4215 16.0991C13.2593 16.2546 13.0392 16.3417 12.8095 16.3417H5.1905C4.9608 16.3417 4.74096 16.2542 4.57831 16.0987C4.4161 15.9433 4.3253 15.7323 4.3253 15.5125V4.01464C4.3253 3.55696 3.93775 3.1855 3.46026 3.1855C2.98276 3.1855 2.59521 3.55696 2.59521 4.01464L2.59524 4.01463Z" fill="#1A202C"/>
<path fill-rule="evenodd" clip-rule="evenodd" d="M0.865042 4.84362H17.1348C17.6125 4.84362 18 4.47215 18 4.01447C18 3.5568 17.6125 3.18533 17.1348 3.18533H0.865042C0.387549 3.18533 0 3.5568 0 4.01447C0 4.47215 0.387549 4.84362 0.865042 4.84362Z" fill="#1A202C"/>
<path fill-rule="evenodd" clip-rule="evenodd" d="M13.1031 2.48756C13.1031 1.114 11.9407 0 10.5078 0H7.49124C6.0582 0 4.89597 1.114 4.89597 2.48756V4.01454C4.89597 4.47264 5.28307 4.84368 5.76101 4.84368H12.2381C12.7162 4.84368 13.1033 4.47264 13.1033 4.01454L13.1031 2.48756ZM11.3728 2.48756V3.1854H6.62609V2.48756C6.62609 2.02946 7.01319 1.65842 7.49128 1.65842H10.5078C10.9853 1.65842 11.3729 2.02946 11.3729 2.48756H11.3728Z" fill="#1A202C"/>
<path fill-rule="evenodd" clip-rule="evenodd" d="M6.33203 8.10264V13.1311C6.33203 13.5888 6.71958 13.9602 7.19722 13.9602C7.67472 13.9602 8.06227 13.5888 8.06227 13.1311V8.10264C8.06227 7.64496 7.67472 7.2735 7.19722 7.2735C6.71958 7.2735 6.33203 7.64496 6.33203 8.10264Z" fill="#1A202C"/>
<path fill-rule="evenodd" clip-rule="evenodd" d="M9.79297 8.10264V13.1311C9.79297 13.5888 10.1805 13.9602 10.658 13.9602C11.1355 13.9602 11.5231 13.5888 11.5231 13.1311V8.10264C11.5231 7.64496 11.1355 7.2735 10.658 7.2735C10.1805 7.2735 9.79297 7.64496 9.79297 8.10264Z" fill="#1A202C"/>
</svg>
